<?xml version="1.0" encoding="UTF-8" standalone="no"?>
<svg
   version="1.1"
   id="am4"
   width="666.66669"
   height="666.66669"
   viewBox="0 0 666.66669 666.66669"
   xmlns="http://www.w3.org/2000/svg"
   xmlns:svg="http://www.w3.org/2000/svg">
   <defs
      id="defs1" />
   <g
      id="g1">
      <path
         id="background"
         d="M 0,0 H 666.66669 V 666.66669 H 0 Z"
         style="fill:#10587a;fill-opacity:1" />
      <path
         id="foreground"
         style="display:inline;fill:#ffffff;fill-opacity:1"
         d="m 304.25248,157.92431 0.10309,72.85929 h 49.98141 v -55.08264 h 18.36088 v 55.08264 h 48.96235 l 0.15539,-55.08264 h 18.20549 v 55.08264 h 49.98289 v -71.98667 z m -135.66701,0.43631 0.10311,194.82885 49.98289,-51.36356 v -24.11957 -52.02249 h 18.36088 v 56.91753 l 50.14427,-51.81778 -0.3885,-72.42298 z m 50.086,17.34034 h 18.36088 v 32.64255 h -18.36088 z m 75.71622,73.32846 -125.78578,131.12011 -0.006,98.52687 h 193.90242 v 60.16295 H 490.00398 V 478.6764 h 47.9418 v -89.78423 h -47.9418 V 249.14448 Z m 102.8526,50.73598 21.61228,21.99928 -38.6702,38.36988 c 0,0 -5.95672,0.44596 -9.16999,2.88532 -0.88553,-0.82432 -14.82407,-14.16812 -14.82407,-14.16812 2.57097,-3.8005 3.80439,-7.26645 2.23533,-10.5835 3.57767,-3.57767 38.81665,-38.50286 38.81665,-38.50286 z m -91.38004,4.08816 c 13.6666,-0.39147 27.27694,6.59909 31.35156,20.77553 1.6641,5.78976 -2.39331,13.9865 1.86478,18.45202 14.23215,14.92554 35.74449,36.51803 53.00269,52.95041 9.725,9.25964 29.10704,24.51507 15.08258,37.34036 -13.20778,12.0784 -28.51433,-8.73824 -36.88612,-17.18493 -16.28088,-16.4265 -40.55461,-40.99305 -50.78529,-51.25448 -3.436,-3.44633 -13.76176,0.003 -20.23611,-1.84833 -15.57259,-4.45285 -25.04299,-22.09002 -20.48266,-37.51818 4.58537,3.93469 17.85583,17.24919 17.85583,17.24919 l 15.77141,-4.10162 3.99403,-16.86517 c 0,0 -11.33102,-11.60068 -16.36462,-17.37321 1.92709,-0.35774 3.87954,-0.56567 5.83192,-0.62159 z m 21.99331,81.92766 6.06949,5.69445 c 0,0 -12.67507,13.43057 -18.22641,18.09042 -8.62087,7.23646 -2.9604,7.2577 -11.53382,15.35452 -3.88502,3.66905 -12.65393,10.83489 -18.33995,11.34257 -0.92184,0.009 -2.86841,-2.09957 -2.75384,-3.20359 1.34987,-5.5927 7.73997,-14.40778 10.94959,-18.07549 10.0707,-9.26741 6.95915,-2.11219 15.78186,-11.08855 3.9485,-4.01726 18.05308,-18.11433 18.05308,-18.11433 z m 70.74796,33.93655 c -1.00655,-0.018 -2.06958,0.34979 -3.06015,1.25066 -4.4767,4.07128 1.58952,11.03449 5.89318,7.12291 3.64398,-3.31201 0.7618,-8.30939 -2.83303,-8.37357 z" />
   </g>
</svg>