<?xml version="1.0" encoding="UTF-8" standalone="no"?>
<svg
   version="1.1"
   id="am4"
   width="666.66669"
   height="666.66669"
   viewBox="0 0 666.66669 666.66669"
   xmlns="http://www.w3.org/2000/svg"
   xmlns:svg="http://www.w3.org/2000/svg">
   <defs
      id="defs1" />
   <g
      id="g1">
      <path
         id="background"
         d="m 128,0 h 410.66669 a 128,128 45 0 1 128,128 v 410.66669 a 128,128 135 0 1 -128,128 H 128 a 128,128 45 0 1 -128,-128 V 128 A 128,128 135 0 1 128,0 Z"
         style="fill:#10587a;fill-opacity:1" />
      <path
         id="foreground"
         style="display:inline;fill:#ffffff;fill-opacity:1"
         d="m 289.19922,99.429688 0.13476,95.236332 h 65.33204 v -72 h 24 v 72 h 64 l 0.20312,-72 h 23.79688 v 72 H 532 V 100.57031 Z M 111.86523,100 112,354.66602 177.33398,287.52734 V 256 188 h 24 v 74.39844 L 266.87891,194.66602 266.37109,100 Z m 65.46875,22.66602 h 24 v 42.66796 h -24 z m 98.97071,95.8496 -164.41797,171.39063 -0.008,128.78711 h 253.45507 v 78.64062 H 532 v -78.64062 h 62.66602 V 401.33398 H 532 V 218.66602 Z m 134.4414,66.31836 28.25,28.75586 -50.54687,50.1543 c 0,0 -7.78618,0.58293 -11.98633,3.77148 -1.1575,-1.07749 -19.37695,-18.51953 -19.37695,-18.51953 3.36059,-4.96774 4.97282,-9.49817 2.92187,-13.83398 4.67647,-4.67647 50.73828,-50.32813 50.73828,-50.32813 z m -119.44531,5.34375 c 17.86399,-0.5117 35.65442,8.62585 40.98047,27.15625 2.17519,7.56796 -3.12836,18.28214 2.4375,24.11914 18.60323,19.50957 46.72259,47.73369 69.28125,69.2129 12.7118,12.10353 38.04659,32.04431 19.71484,48.80859 -17.26424,15.788 -37.27185,-11.42199 -48.21484,-22.46289 -21.28117,-21.47152 -53.01002,-53.58312 -66.38281,-66.9961 -4.49129,-4.50479 -17.98837,0.004 -26.45117,-2.41601 -20.35535,-5.82044 -32.73436,-28.87446 -26.77344,-49.04102 5.99367,5.14314 23.33984,22.54688 23.33984,22.54688 l 20.61524,-5.36133 5.2207,-22.04492 c 0,0 -14.81108,-15.16356 -21.39063,-22.70899 2.51895,-0.46762 5.07105,-0.7394 7.62305,-0.8125 z m 28.74805,107.08985 7.93359,7.44336 c 0,0 -16.56792,17.55546 -23.82422,23.64648 -11.26858,9.45897 -3.86963,9.48674 -15.07617,20.07031 -5.07821,4.79591 -16.54029,14.16257 -23.97265,14.82618 -1.20495,0.0113 -3.74937,-2.74441 -3.59961,-4.1875 1.76445,-7.31037 10.11712,-18.8328 14.3125,-23.62696 13.16368,-12.11368 9.0965,-2.7609 20.6289,-14.49414 5.16119,-5.25107 23.59766,-23.67773 23.59766,-23.67773 z m 92.47656,44.35937 c -1.31569,-0.0235 -2.7052,0.45723 -4,1.63477 -5.85162,5.32168 2.0777,14.42349 7.70313,9.31055 4.76314,-4.32922 0.99577,-10.86142 -3.70313,-10.94532 z" />
   </g>
</svg>